<svg width="167" height="168" viewBox="0 0 167 168" fill="none" xmlns="http://www.w3.org/2000/svg">
<path d="M129.917 107.731L131.448 106.846L155.16 93.1501L155.16 93.1501C156.563 92.34 157.379 90.8004 157.262 89.1847L158.528 89.0934L157.262 89.1847C157.146 87.5684 156.116 86.1617 154.612 85.562L154.612 85.5619L48.8746 43.383L48.8741 43.3828C47.3058 42.7566 45.5142 43.1251 44.3189 44.3197C44.3189 44.3198 44.3188 44.3198 44.3188 44.3199C44.3187 44.3199 44.3186 44.32 44.3186 44.32C43.1233 45.516 42.7549 47.3072 43.3807 48.8755L43.3808 48.8758L85.5529 154.625M129.917 107.731L85.5529 154.625M129.917 107.731L131.167 108.981L164.404 142.219L165.364 141.26L129.917 107.731ZM85.5529 154.625L84.2965 155.127L85.553 154.626L85.5529 154.625ZM164.405 148.199L165.364 149.158L164.405 148.199C164.405 148.199 164.405 148.199 164.405 148.199Z" fill="white" stroke="black" stroke-width="2.71399"/>
<path d="M24.5163 16.6183C22.335 14.4387 18.7996 14.4381 16.6171 16.6183C14.4364 18.7996 14.4364 22.3362 16.6171 24.5175L29.0274 36.9278C30.1178 38.0182 31.5467 38.5636 32.9767 38.5636C34.4056 38.5636 35.8351 38.0182 36.9255 36.9278C39.1068 34.7465 39.1068 31.2105 36.9255 29.0292L24.5163 16.6183Z" fill="#AE5502"/>
<path d="M28.7221 55.2307C28.7221 52.1468 26.2213 49.6455 23.1364 49.6455H5.58572C2.50129 49.6455 0 52.1462 0 55.2307C0 58.3151 2.50073 60.8164 5.58572 60.8164H23.1364C26.2213 60.8158 28.7221 58.3151 28.7221 55.2307Z" fill="#AE5502"/>
<path d="M26.4581 72.4679L14.0461 84.8793C11.8653 87.0607 11.8653 90.5972 14.0461 92.778C15.137 93.8683 16.5665 94.4138 17.9954 94.4138C19.4243 94.4138 20.8543 93.8683 21.9447 92.778L34.3561 80.3671C36.5374 78.1858 36.5374 74.6493 34.3561 72.4679C32.1754 70.2883 28.6405 70.2877 26.4581 72.4679Z" fill="#AE5502"/>
<path d="M55.2269 28.7232C58.3113 28.7232 60.8126 26.2225 60.8126 23.1375V5.58516C60.8126 2.50073 58.3119 0 55.2269 0C52.143 0 49.6417 2.50016 49.6417 5.58516V23.138C49.6417 26.2225 52.1424 28.7232 55.2269 28.7232Z" fill="#AE5502"/>
<path d="M76.4112 35.9935C77.8413 35.9935 79.2702 35.4481 80.3605 34.3577L92.7703 21.9474C94.9516 19.7661 94.9516 16.2295 92.7703 14.0482C90.5889 11.868 87.0524 11.868 84.8716 14.0482L72.4619 26.4591C70.2806 28.6404 70.2806 32.1769 72.4619 34.3577C73.5529 35.4481 74.9818 35.9935 76.4112 35.9935Z" fill="#AE5502"/>
</svg>
